<svg width="420" height="120" viewBox="0 0 420 120" fill="none" xmlns="http://www.w3.org/2000/svg">
  <rect width="420" height="120" rx="28" fill="none"/>

  <g transform="translate(18 18)">
    <rect x="14" y="38" width="66" height="50" rx="12" fill="#FF4D7D"/>
    <rect x="22" y="46" width="50" height="34" rx="8" fill="#FF8FAB"/>

    <path d="M47 38V88" stroke="white" stroke-width="7" stroke-linecap="round"/>
    <path d="M14 54H80" stroke="white" stroke-width="7" stroke-linecap="round"/>

    <path d="M47 36C35 22 23 18 18 26C12 36 28 42 47 38Z" fill="#FFC857"/>
    <path d="M47 36C59 22 71 18 76 26C82 36 66 42 47 38Z" fill="#FFC857"/>

    <path d="M47 24C47 24 54 12 65 17C75 21 74 35 47 38C20 35 19 21 29 17C40 12 47 24 47 24Z"
          fill="#FF2D55"
          stroke="#111827"
          stroke-width="4"
          stroke-linejoin="round"/>

    <rect x="14" y="38" width="66" height="50" rx="12" stroke="#111827" stroke-width="5"/>
  </g>

  <text x="120" y="52"
        font-family="Arial, Helvetica, sans-serif"
        font-size="34"
        font-weight="900"
        fill="#111827">
    KartKutusu
  </text>

  <text x="122" y="82"
        font-family="Arial, Helvetica, sans-serif"
        font-size="16"
        font-weight="600"
        fill="#E11D48">
    Sevdiklerine özel sürprizler
  </text>
</svg>
