<svg xmlns="http://www.w3.org/2000/svg" viewBox="0 0 100 100">
  <rect width="100" height="100" rx="24" fill="#fff1f2"/>
  <rect x="22" y="42" width="56" height="40" rx="10" fill="#ff4d7d"/>
  <rect x="30" y="50" width="40" height="24" rx="6" fill="#ff8fab"/>

  <path d="M50 42V82"
        stroke="white"
        stroke-width="8"
        stroke-linecap="round"/>

  <path d="M22 58H78"
        stroke="white"
        stroke-width="8"
        stroke-linecap="round"/>

  <path d="M50 38C38 25 26 22 22 30C17 40 33 45 50 42Z"
        fill="#ffc857"/>

  <path d="M50 38C62 25 74 22 78 30C83 40 67 45 50 42Z"
        fill="#ffc857"/>

  <path d="M50 25C50 25 57 13 68 18C78 22 77 36 50 40C23 36 22 22 32 18C43 13 50 25 50 25Z"
        fill="#ff2d55"/>
</svg>
